<svg width="14" height="11" viewBox="0 0 14 11" fill="none" xmlns="http://www.w3.org/2000/svg">
<path d="M9.66683 9.33333V10.6667H0.333496V9.33333C0.333496 9.33333 0.333496 6.66666 5.00016 6.66666C9.66683 6.66666 9.66683 9.33333 9.66683 9.33333ZM7.3335 2.99999C7.3335 2.53851 7.19665 2.08738 6.94026 1.70366C6.68387 1.31995 6.31945 1.02088 5.89309 0.844276C5.46673 0.667671 4.99757 0.621463 4.54495 0.711495C4.09233 0.801528 3.67657 1.02376 3.35025 1.35008C3.02392 1.6764 2.8017 2.09216 2.71166 2.54478C2.62163 2.99741 2.66784 3.46656 2.84444 3.89292C3.02105 4.31928 3.32012 4.6837 3.70383 4.94009C4.08755 5.19648 4.53867 5.33333 5.00016 5.33333C5.619 5.33333 6.21249 5.0875 6.65008 4.64991C7.08766 4.21233 7.3335 3.61883 7.3335 2.99999ZM9.62683 6.66666C10.0367 6.98383 10.372 7.38695 10.6093 7.84767C10.8465 8.30838 10.98 8.8155 11.0002 9.33333V10.6667H13.6668V9.33333C13.6668 9.33333 13.6668 6.91333 9.62683 6.66666ZM9.00016 0.666661C8.54129 0.664106 8.09251 0.801298 7.7135 1.05999C8.11846 1.62582 8.3362 2.30419 8.3362 2.99999C8.3362 3.6958 8.11846 4.37417 7.7135 4.94C8.09251 5.19869 8.54129 5.33588 9.00016 5.33333C9.619 5.33333 10.2125 5.0875 10.6501 4.64991C11.0877 4.21233 11.3335 3.61883 11.3335 2.99999C11.3335 2.38116 11.0877 1.78766 10.6501 1.35008C10.2125 0.912494 9.619 0.666661 9.00016 0.666661Z" fill="#59B17A"/>
</svg>
